<?xml version="1.0" standalone="no"?>
<!DOCTYPE svg PUBLIC "-//W3C//DTD SVG 20010904//EN"
 "http://www.w3.org/TR/2001/REC-SVG-20010904/DTD/svg10.dtd">
<svg version="1.0" xmlns="http://www.w3.org/2000/svg"
 width="3950.000000pt" height="1163.000000pt" viewBox="0 0 3950.000000 1163.000000"
 preserveAspectRatio="xMidYMid meet">

<g transform="translate(0.000000,1163.000000) scale(0.100000,-0.100000)"
fill="#000000" stroke="none">
<path d="M14316 11009 c3 -24 47 -491 99 -1037 l94 -993 47 -87 c268 -491 671
-1019 1215 -1589 401 -420 956 -923 1434 -1298 l100 -79 -110 115 c-311 322
-556 635 -880 1124 -605 912 -1320 2285 -1900 3650 -53 127 -99 232 -101 234
-2 3 -2 -15 2 -40z"/>
<path d="M14790 6839 c1 -56 208 -1980 214 -1986 8 -8 241 -27 596 -47 1451
-85 2887 -67 4115 49 303 29 752 83 778 93 12 5 -34 16 -125 31 -750 121
-1799 391 -2743 706 -883 294 -1645 604 -2490 1012 -176 85 -326 157 -332 160
-8 3 -13 -3 -13 -18z"/>
<path d="M20799 4886 c-3 -3 -95 -30 -205 -60 -109 -30 -188 -55 -174 -55 74
-1 2303 99 2308 103 3 3 -393 6 -879 6 -486 0 -920 3 -964 6 -44 4 -83 4 -86
0z"/>
<path d="M22280 4789 l-2225 -99 -182 -36 c-101 -21 -182 -38 -180 -39 1 -1
1025 18 2276 42 l2274 43 116 59 c64 33 145 76 181 95 l65 36 -50 -1 c-27 -1
-1051 -46 -2275 -100z"/>
<path d="M19278 4546 c-69 -11 -128 -23 -131 -26 -3 -4 2192 -1904 2338 -2023
l34 -29 280 239 c154 131 277 241 273 245 -4 4 -596 370 -1316 813 -752 462
-1318 804 -1330 804 -11 -1 -78 -11 -148 -23z"/>
<path d="M18801 4479 c-80 -11 -147 -21 -149 -23 -4 -5 428 -3999 434 -4005 2
-2 9 1 16 6 240 186 358 288 358 307 0 13 -106 854 -235 1871 -129 1016 -235
1852 -235 1857 0 11 -17 9 -189 -13z"/>
<path d="M19818 4489 c4 -3 555 -322 1226 -708 935 -539 1223 -701 1236 -694
10 4 392 312 848 683 614 499 825 676 809 677 -12 1 -875 12 -1917 23 -1042
11 -1966 21 -2052 23 -86 1 -154 -1 -150 -4z"/>
<path d="M18045 4405 c-88 -7 -234 -16 -325 -19 -91 -4 -206 -9 -256 -12 l-91
-6 546 -1248 c300 -687 547 -1247 548 -1246 4 3 -207 2495 -213 2524 -3 15
-11 22 -27 21 -12 -1 -94 -8 -182 -14z"/>
<path d="M19230 4189 c-1 -28 442 -3234 448 -3251 6 -14 158 109 785 637 428
360 794 668 814 684 l35 29 -1019 938 c-1173 1081 -1063 981 -1063 963z"/>
</g>
</svg>
