<?xml version="1.0" standalone="no"?>
<!DOCTYPE svg PUBLIC "-//W3C//DTD SVG 20010904//EN"
 "http://www.w3.org/TR/2001/REC-SVG-20010904/DTD/svg10.dtd">
<svg version="1.0" xmlns="http://www.w3.org/2000/svg"
 width="160.000000pt" height="160.000000pt" viewBox="0 0 160.000000 160.000000"
 preserveAspectRatio="xMidYMid meet">

<g transform="translate(0.000000,160.000000) scale(0.100000,-0.100000)"
fill="#000000" stroke="none">
<path d="M260 1410 c0 -8 5 -57 10 -108 9 -81 15 -101 44 -145 45 -67 131
-162 193 -212 l48 -40 -31 40 c-53 67 -114 173 -191 330 -40 82 -73 143 -73
135z"/>
<path d="M313 938 c3 -18 9 -67 13 -109 6 -76 7 -77 36 -83 40 -8 385 -8 481
0 42 4 74 11 71 15 -3 5 -13 9 -23 9 -62 0 -358 98 -525 174 l-58 27 5 -33z"/>
<path d="M1335 740 c-4 -6 6 -10 24 -10 16 0 33 5 36 10 4 6 -6 10 -24 10 -16
0 -33 -4 -36 -10z"/>
<path d="M1168 733 c28 -2 76 -2 105 0 28 2 5 3 -53 3 -58 0 -81 -1 -52 -3z"/>
<path d="M825 692 c11 -10 71 -62 132 -116 l113 -98 29 24 c17 13 30 25 30 28
1 10 -290 180 -306 180 -15 0 -15 -2 2 -18z"/>
<path d="M753 654 c3 -27 14 -123 23 -214 9 -91 21 -169 25 -174 5 -5 14 -5
22 2 11 10 9 45 -13 219 -23 183 -28 208 -44 211 -17 4 -18 -1 -13 -44z"/>
<path d="M985 647 c50 -29 109 -64 132 -77 l42 -23 83 68 c46 37 87 72 92 77
6 4 -91 8 -215 8 l-224 0 90 -53z"/>
<path d="M610 682 c0 -10 99 -235 107 -242 5 -5 2 45 -13 193 l-6 57 -44 0
c-24 0 -44 -4 -44 -8z"/>
<path d="M820 645 c0 -26 42 -329 46 -334 3 -4 174 137 174 144 0 4 -96 95
-172 165 -37 33 -48 38 -48 25z"/>
</g>
</svg>
